<?xml version="1.0" standalone="no"?>
<!DOCTYPE svg PUBLIC "-//W3C//DTD SVG 20010904//EN"
 "http://www.w3.org/TR/2001/REC-SVG-20010904/DTD/svg10.dtd">
<svg version="1.0" xmlns="http://www.w3.org/2000/svg"
 width="980.000000pt" height="950.000000pt" viewBox="0 0 980.000000 950.000000"
 preserveAspectRatio="xMidYMid meet">
<metadata>
Created by potrace 1.16, written by Peter Selinger 2001-2019
</metadata>
<g transform="translate(0.000000,950.000000) scale(0.100000,-0.100000)"
fill="#FF0000" stroke="none">
<path d="M4796 9475 c-22 -8 -62 -33 -90 -55 -28 -21 -1084 -1073 -2348 -2337
-1896 -1897 -2301 -2308 -2324 -2353 -24 -47 -29 -67 -29 -135 0 -133 8 -145
347 -481 271 -270 297 -293 353 -314 77 -28 177 -24 245 9 33 17 573 550 1997
1974 l1953 1952 1957 -1956 c1907 -1906 1960 -1957 2018 -1979 82 -30 180 -25
252 14 35 19 142 119 336 315 322 322 331 335 332 456 0 145 222 -89 -2374
2508 -1800 1802 -2347 2344 -2386 2364 -62 33 -178 41 -239 18z"/>
<path d="M4796 5705 c-22 -8 -62 -33 -90 -55 -28 -21 -1084 -1073 -2348 -2337
-1896 -1897 -2301 -2308 -2324 -2353 -24 -47 -29 -67 -29 -135 0 -133 8 -145
347 -481 271 -270 297 -293 353 -314 77 -28 177 -24 245 9 33 17 573 550 1997
1974 l1953 1952 1957 -1956 c1907 -1906 1960 -1957 2018 -1979 82 -30 180 -25
252 14 35 19 142 119 336 315 322 322 331 335 332 456 0 145 222 -89 -2374
2508 -1800 1802 -2347 2344 -2386 2364 -62 33 -178 41 -239 18z"/>
</g>
</svg>
